<svg xmlns="http://www.w3.org/2000/svg" xmlns:xlink="http://www.w3.org/1999/xlink" width="0" height="0" style="position:absolute">
	
		<symbol id=":icon_11_years" viewBox="0 0 105.7 80">
			<style>.st0{fill:#124a85}.st1{fill:#fff}</style><path class="st0" d="M42.4 0H31.8l-9.7 6.7v12.5l8.4-5.8v35.7l11.9-2zM71.4 0H60.8L51 6.7v12.5l8.5-5.8v35.7l11.9-2z"></path><path class="st1" d="M77.4 40.9l-12.5 1.9-9.8 1.7-12.1 2-4.9.6-11.9 2L.9 53.2v25.7l104-16.6V36.5z"></path><path class="st0" d="M0 80V52.3l105.7-16.9v27.7L0 80zm1.7-26.2V78L104 61.6V37.4L1.7 53.8z"></path><g><path class="st0" d="M41.5 53.6v12.5l-3.5.6v-9.5l-2.6.4V60c0 1.1 0 1.9-.2 2.8s-.4 1.7-.9 2.4c-.4.6-.9 1.3-1.5 1.7-.6.4-1.5.9-2.6.9l-.4-2.4c.6-.2 1.1-.4 1.3-.6.4-.2.6-.6.6-1.1.2-.4.2-.9.2-1.3v-7.3l9.6-1.5zM47.4 59.9c0 .9.2 1.3.6 1.5.4.2.9.4 1.5.2.2 0 .6-.2 1.3-.4.4-.2 1.1-.6 1.5-1.3l2.2 2.2c-.9.9-1.7 1.5-2.6 1.9-.9.4-1.7.6-2.6.9-.6.2-1.3.2-1.9 0-.6 0-1.3-.4-1.7-.6-.6-.4-1.1-1.1-1.3-1.7-.4-.9-.4-1.7-.4-3s.2-2.2.4-3 .6-1.5 1.3-2.2c.4-.6 1.1-1.1 1.7-1.5s1.3-.6 2.2-.6c1.1-.2 1.9-.2 2.6 0 .6.2 1.3.6 1.7 1.1.4.4.9 1.1 1.1 1.9s.4 1.7.4 2.6v.9l-8 1.1zm3.8-2.8c0-.6-.2-1.1-.6-1.3-.4-.2-.6-.4-1.3-.2-.4 0-.9.2-1.3.6-.4.4-.6.9-.6 1.5l3.8-.6zM64 53v9.7l-3.7.6v-9.7l-3.7.6V51l11.2-1.9v3.2L64 53z"></path></g>
		</symbol>
	
		<symbol id=":icon_5_years" viewBox="0 0 80 80">
			<style>.st0{fill:#124a85}</style><path class="st0" d="M40 0C17.9 0 0 17.9 0 40s17.9 40 40 40 40-17.9 40-40S62.1 0 40 0zm-2.1 78.2l.2-.2h.2s.1.1.1.2h-.5zm2.1.1h-1.5c.1-.2.2-.4.4-.6.4-.4.6-.6 1.1-.9.6-.2.2-.4.4-1.1.2-.6 0-.6.4-1.1.2-.6.4-.2.9-.6s.6-.6 1.3-.9c.6-.2.4-.4.9-.4s.2 0 .6-.4.9-.2 1.7-.2c.9 0 .2-.2.6-.4.4-.2.4-.2.4-.6s.2-.6.6-.9c.4-.2.4-.2.4-.6.2-.2.4-.4.6-.9.2-.4.2-.9.4-.6 0 .2 0-.2.4-.9.4-.4.4-1.1.4-1.5s.2-1.3.4-1.9c.2-.4.4-.4.4 0 0 .2.2-.4.6-1.1.4-.6.6-1.1.9-1.3.2-.2.4-.4.6-.9.4-.4.4-.9.9-1.7.4-.4 0-1.3 0-1.9 0-.6-.4-.6-1.1-.6-.6 0-.6 0-1.5-.9s-1.5-.9-1.9-.9h-1.1c0-.2-.2-.2-.4 0s-.2 0-.9-.2c-.6-.2-.4 0-.9.2l-.6.6v-.2s0-.2.2-.4 0-.4-.2-.6c-.2-.2-.4-.2-.6-.2-.2 0 0-.2-.2-.4s-.9-.2-1.5-.4-.9-.2-1.1 0c-.2.2-.2.6-.6.9-.4.2-.6.4-.4.2 0 0-.2-.2 0-.2s.2-.2.4-.4.2-.4.2-.6c.2-.4 0-.2-.4-.2s-.9-.4-1.3-.6c-.4-.2-.4.4-.4.4s-.4 0-.6.4c-.2.2-.4.4-.4.9 0 .2-.4.2-.2 0 0-.2.2-.4.6-1.1.4-.6.2 0 .4-.2s.2 0 .2-.2.6-.6.6-.9c0-.2-.2 0-.4 0s-.4-.4-.6-.9c-.2-.6-.2-1.3-.6-1.3-.2 0-.6 0-.6-.2 0 0 .2-.2 0-.2-.4-.2-.2 0-.4-.4s-.2-.2-.4-.4c-.2 0-.4-.2-.6-.2-.2 0-.2 0-.4-.2-.4-.2-.6 0-.6 0s-.6-.2-.9.2c-.2.2-.2 0-.9 0h-.4v-.2c-.2-.2-.9-.4-1.3-.4s0-.2 0-.4 0-.2-.2-.4-.4-.2-.6-.4c0 0-.2 0-.2-.2-.4-.2-.4 0-.6-.2-.2 0 0-.2-.2-.4v-.2c0-.2-.4-.4-.6-.4h-.2c-.2 0-.9-.2-.9-.2-.2 0-.2-.4-.2-.6-.2-.2-.2 0-1.1 0s-.6 0-.6.2 0 .2-.4.4-.4.2-.9 0c-.4 0-.9-.4-1.1-.6-.2-.2-.2 0-.6.2-.2.2-.4.2-.9 0-.4 0-.2-.2-.2-.6s-.4-.4-1.3-.4c-1.1-.2-.9.2-1.3.4-.6 0-.4 0-.4.2s.4.9.4 1.3 0 .2-.4.4c-.2 0-.4.2-.4 0s-.2-.2-.2-.4c-.2-.2 0-.2.2-.4 0-.2.2-.2.2-.2.2-.2 0-.4 0-.6 0-.2-.2-.2-.2-.4-.2-.2 0-.2.4-.2.2 0 .2-.2.4-.4.2-.4-.2-.2-.6-.2-.4.2-.2.6-.4.4-.2-.2-.4-.2-.4.2s-.4.4-.6.2c-.2 0-.4-.2-.4 0 0 0 0 .4-.4.2-.2 0-.2 0-.6.2s-.4.6-.4 1.3c0 .4-.4 0-.6.4-.2.4-.6 0-.6.6s-.2.2-.2.2v-.2l-.2-.2-.6-.6c-.8-1.1-.8-1.1-.9-1.1v-.3c0-.2-.9-.6-1.1-.4-.2 0-.2.4-.4.4-.2.2-.6.2-.6.2l.1.2c-.4.1-.6.2-.9.3l-.1-.1c-.2-.2-.2-.2-.4-.2h-.3c-.1 0-.1-.1-.1 0-.2-.1-.3-.1-.3-.1 0-.1 0-.1-.2-.1h-.2c-.2 0-.2-.2-.4-.4 0-.2-.2-.2-.2-.4s-.2-.4-.2-.4 0-.2-.2-.4c0-.2 0-.2.2-.4s0 0 0-.4c0-.2 0-.2.4-.4.2-.2 0-.4 0-.6-.1-.5-.1-.5.1-.7s.2-.2.4-.6c.2-.2-.2-.4-.2-.4h-.6c-.2 0 .2 0 .4-.2s.2 0 .4-.2 0-.2 0-.2c-.2 0-.2-.2-.4-.2-.4-1.1-.6-1.1-.9-1.1-.2-.2-.4.2-.6 0s-.2 0-.6 0c-.4.2-.6 0-1.1-.2-.4-.2-.4.2-.4 0-.2-.2 0 0-.4 0-.2 0-.2-.2-.4-.2 0 0 .4-.2.6-.4.4-.2.2-.6.2-.9 0-.4.2-.4.4-.4s0 0 0-.2c0 0 0-.2.2-.6.4-.6.2-.4.2-.6 0-.2 0-.4.2-.6.4 0 .9-.2.9-.6.2-.2.2-.4-.2-.4s-.4.2-.6 0-.9 0-1.5 0c-.4 0-.6.2-.6.9-.2.4-.4 1.1-.6 1.3-.1.1-.3.3-.6.4.5-3.1 1.4-6 2.5-8.8.2 0 .4 0 .4-.2.2-.2.2 0 .2.2.2.2 0-.2 0-.4-.2-.2 0-.2 0-.4s0-.1-.2 0c0-.1.1-.2.1-.3 0-.5.1-.5.4-.5.6 0 .4 0 .6-.2v.2c0 .2.2 0 .6 0s.2-.2.9 0c.6.2 0 .4.6.6s.4-.2.9-.2.4 0 .6.4c.2.2.4.2.6.4 0 .4-.2.4-.2.9s0 .9.2.9 0 .2.2.4c0 .2.4.9.6.9.2 0 .4.2.6-.2.2-.4.4-1.1.2-1.5-.2-.2 0-.4 0-.6s0-.2-.2-.6-.2-.6-.2-.9c0-.2-.2-.2 0-.6.2-.2.4-.6.6-.9.2-.2.2-.2.9-.6.6-.4.6-.4 1.1-.6.4-.2.9-.2.9-.4s.2-.2.6-.2c.4-.2.2-.2.6-.2.4-.2.6-.4.2-.6-.4-.6 0-.6.4-.6.6 0 0-.2-.2-.4s-.2-.2 0-.6c0-.2.2-.2 0-.6 0-.4 0-.4.4-.6.2-.2 0 0 0 .4 0 .2 0 .2.2.4s.2.2.2 0 0-.4.2-.6c0-.2 0 0 .2.2s.2 0 .4-.2.2-.2.2-.4c0 0-.2-.2.2-.2s0-.2.2-.2c.2-.2.2 0 .6 0 .6 0 .6 0 .6-.2.2-.2 0 0 .4.2.2.2.4-.2.4-.4 0 0-.2-.2-.2-.4s0-.4.6-.6c.6-.4.4 0 .6-.2s.2-.2.4-.2h.4c.2 0 .2-.2.6-.2s.2 0 .2-.2 0 0 .4-.2c.4 0 .6-.2 1.1-.2.4-.2 0 .2 0 .2h.6c.4 0 0 0 0 .2H25c-.2 0-.6.2-.6.2l-.2.2c-.2.2-.2.2-.2.4s.2.2.2.2c.2 0 .4 0 .6-.2.2 0 .4-.2.4-.4.2 0 0 0 0-.2s.2 0 .2 0H26c.2 0 .2 0 .4-.2s0 0 .6-.2c.4 0 .2-.2 0-.4l-.2-.2c-.2-.2 0 0-.2 0H26c-.4 0 .4-1 .4-1 0-.2 0-.2-.4-.2s-.2-.2-.2-.4 0 0-.2 0 0 0 0-.2l.2-.2c0-.2-.2 0-.4 0-.2.2-.2 0-.4 0 0-.2-.2-.2-.4-.2h.8s.2 0 .6-.2c.4 0 .2-.2 0-.2.4-.2.4-.4 0-.4h-1.6s-.4.2-.6.2-.4.2-.6.4-.4 0-.2-.2.4-.2.9-.6c.4-.2.4 0 .6 0 .4 0 .2 0 .6-.4.2-.4.2-.2.6-.2h1.1s.9 0 1.9.2c1.1 0 .6-.2 1.3-.4.6-.4.4-.4 1.1-.4 0 .2-.2.4-.2.4l-.4.6-.2.4v.2c-.2 0-.6 0-.4.2.4 0 .6 0 .2.2s-.9.2-.4.2h1.9l.4.2s.4-.2.6-.2c0 0 0 .2-.2.2-.2.4-.6.2-.4.4.2.2.2.2.4 0 .2 0 .2-.2.4-.4h.4s0-.2.2-.2.2-.2.2-.2.2 0 0-.2-.6 0-.4-.2c.2-.2.9-.2.2-.4-.6-.2-.6-.2-.9-.2-.2 0 0 .2-.4 0-.6-.2-.9-.2-.6-.4.2-.2.6-.6.4-.6 0-.1 0-.1-.1-.2 0 0 .1 0 .1-.1.2-.2-.2 0 0-.4 0-.2 0-.2-.2-.4s-.4 0-.4-.2 0 0-.6 0-.6.2-.9.2h-.4c-.2 0 .2-.2.2-.2h.6c.2 0 .2 0 .4-.2.2 0 .4 0 .2-.2-.2 0 0-.2-.4 0-.4 0-.4 0-.6-.2 0-.2 0 0-.4 0s-.4-.1-.4-.3-.4 0-.6 0-.2-.2 0-.4 0 0 0-.2 0-.2-.6-.4c-.4-.2-.6-.4-1.1-.6-.4-.4-.2 0-.2 0s-.2.4-.4.4c0 .2-.2 0-.6.2s-.4 0-.4 0-.6-.2-1.1-.2l-.2-.2c-.2-.2-.1-.2 0-.4.4-.2.8-.4 1.2-.5h.4l-.1-.1c1.9-.8 3.9-1.5 6-2 0 .2 0 0-.2.2s0 0 .2.2.6.4.9.6c.2.2 1.7.9 1.7.9H35s.4 0 1.1.2c.4.2.2.2.4.2s.9.2.9 0c0 0-.2-.4-.4-.9-.2-.2 0-.4 0-.4v-.3s-.2-.4 0-.6.2 0 1.1 0 .2 0 0-.4c-.2-.2 0-.2.2-.2h1c.4 0 .6 0 .2-.2-.2-.2-.6-.3-1.3-.4.7 0 1.4-.1 2.1-.1 10.4 0 19.9 4.2 26.8 11.1-.2.1-1.3-.2-1.3 0 .2.2 1.3.6 1.3 1.3 0 .4.2 1.1.2 1.1s.2.4.4.4c.2.2 1.1 1.1 1.3 1.1.2 0 .4.6.4 0s.2-.4 0-.6c0-.4-.2-.6-.4-.9-.2-.2-.4-.2-.4-.6v-.1c.9 1 1.7 2 2.5 3l-.3.3c-.4 0-.6.2-.6 0-.2-.2-.4-.6-.4-.4s.4.9.4 1.1v.9c0 .2.4 1.3.4 1.3s.4.2.4.6 0 .6-.2.9c0 .2-.2 0-.2.4.6 0 1.3.2 1.3.2s.2.2.6.4c0 0-.2.2 0 .4 0 .2 0 .4-.2.4s-.9-.6-.6-.2c.2.4.6.6.4 1.1-.2.4-.4-.4-.2.2.2.6.9 1.3.4 1.3-.2 0-.9-.2-1.5 0 .2.4.2.6.4.9.2.2-.2.4.2.9s.4 1.1.4 1.3v.8c.2.4 0 .6-.2.9 0 .2 0 0 .2.6.2.4.4.2.4.6-.2.4 0 .6.2.9.2.2.4 0 .4.4 0 .2.2.4.2.4.2 0 .2.2.2.2s.6.4.6.9.2 1.1 1.1 1.9c.6.9.9 1.9 1.3 1.5s.9-.6 1.1-.6c0 0 0-.2.4-.2.2 0 .4 0 .4-.2 0-.1.1-.2.1-.3.1.9.1 1.8.1 2.7C78.3 61.2 61 78.3 40 78.3z"></path><path class="st0" d="M58.2 25.5c-.6-1.1-1.5-1.7-2.8-2.4-1.1-.6-2.6-.9-4.3-.9-.9 0-1.7.2-2.8.4-1.1.2-1.9.6-2.6 1.3v-5.4h13.6v-6.7H38.7v19.9h6.7c.4-1.1 1.1-1.7 1.7-2.2.6-.4 1.3-.6 1.9-.6.9 0 1.5.2 1.9.4.6.2 1.1.6 1.3 1.1.4.4.4 1.1.6 1.7.2.6.2 1.3.2 1.9 0 .6-.2 1.3-.2 1.9-.2.9-.4 1.3-.6 1.9l-1.3 1.3c-.4.4-1.1.6-1.9.6-1.1 0-1.9-.2-2.6-.6-.6-.4-1.1-1.5-1.3-2.8l-7.4 1.1c.2 1.9.6 3.5 1.5 4.5.9 1.3 1.7 2.2 2.8 2.8s2.2 1.1 3.5 1.3c1.1.2 2.4.4 3.5.4 1.9 0 3.5-.2 5-.9 1.3-.4 2.6-1.5 3.5-2.6 1.1-1.3 1.7-2.6 2.2-4.3.4-1.7.6-3.5.6-5.6 0-1.5-.2-3-.6-4.3-.2-1-.9-2.1-1.5-3.2zM17.3 32.9c-.2-.2-.6-.2-.9-.4-.4-.2 0-.2-.4-.2-.2 0-.6-.2-1.1-.4-.4-.2-.4 0-.9-.4s0-.2-1.1-.2c-1.1-.2-.6-.2-.6-.2l-1.3-.8H9.7s-1.1.2-1.3.4c-.2.2-.2.4-.6.4-.2 0 0 .2.2.2s.2 0 .6-.4.2-.2.9-.2c.6-.2.2-.2.6-.2s.6.2.4.2c-.2 0-.2 0 .2.2s.2.2.6 0c.4 0 .2.2.6.2s.4.2.9.2c.6 0 .2 0 .4.2 0 .2.2.4.9.6.6.4-.4.9-.2.9h2.4c1.9.1 1 .1 1-.1zM24.6 34.8H24c-.6 0-.4.4 0 .4s.2 0 .6.2.2 0 .4-.2c.2 0 .6-.2.6-.2s-.2 0-.6-.2c-.1 0 .1.2-.4 0zM14.5 29.6c.2 0 .4 0 .4-.4s-.4-.9-.6-.9c-.4 0-1.1-.2-.4.6.6.9.4.7.6.7zM29 12.1c0-.4-.2 0-.2 0l-.4.4v.4c0 .2.2.2.4.2s0 0 .2-.2l.2.2h.2c.2 0 .2-.2.2-.2s-.2 0-.4-.2 0 .1-.2-.6zM34.4 11.9c-.2 0-.2 0-.2.2-.2 0-.2.2-.2 0v-.4l-.2.2s-.2 0-.2.2v.2c0 .2.2 0 .2.2v.2l.4-.2.4-.2v-.2s0-.2-.2-.2zM43 4.8c.6 0 .9.2 1.1.2 0 0-1.5-.9-1.7-.9h-1.1l.2.6c.2-.2.9-.2 1.5.1zM21.8 34.2c-.4-.4-.4-.4-1.5-.4-1.1-.2-.4.2-.9 0-.4-.2-.6-.2-1.1 0-.4.2 0 .4.4.4s.2.2.2.4-.2.2-.4.2-.4.2-1.3.2 0 .4 0 .4.4.2 1.3.2c.8 0 .5-.2 1.2 0h.1c.2 0 .4-.4.6-.6.2-.2.2.2.9 0 .4-.2 0-.2.9.2.6.4.6.2.9-.2.3-.4-.8-.6-1.3-.8z"></path>
		</symbol>
	
		<symbol id=":icon_contract" viewBox="0 0 80 80">
			<style>.st0{fill:#124a85}</style><path class="st0" d="M80 80H0V0h80v80zM1.5 78.5h76.8v-77H1.5v77z"></path><path class="st0" d="M30.7 9.1c.6 0 1.3.2 2.2.4 2.4.9 4.8 1.5 7.4 2.2-.4.2-.9.4-1.5.6-1.5.6-2.8 1.3-4.3 1.9h-.6c-1.9-1.1-3.9-2.4-5.6-3.5l-.2-.2c-.2-.2-.2-.4.2-.6.5-.6 1.5-.8 2.4-.8z"></path><path class="st0" d="M56 7.4h.4c1.3 0 2.6.4 3.7 1.3l.4.4c.4.6.6.9-.2 1.5-1.1.6-1.9 1.5-3 1.9-2.8 1.5-5.6 2.8-8.2 4.1-.2.2-.4.4-.4.6-2.2 4.5-4.1 9.1-6.3 13.4-.2.6-.6 1.1-1.1 1.7-.6 1.1-1.7 1.3-2.6 1.7h-.2c-.2 0-.2-.2-.2-.4 0-.6.2-1.1.2-1.7.6-3.7 1.3-7.4 2.2-11v-.4l-.7.3c-3 1.3-6.1 2.8-9.3 3.7-1.7.4-3.5.9-5.2.9h-.2c-.6 0-1.1 0-1.7-.2s-1.1-.6-1.3-1.1c-1.1-2.2-1.9-4.5-3-6.7-.2-.6 0-1.1.6-1.3h.6c.4 0 .9.2 1.1.4 1.1.9 1.9 1.5 3 2.2l.6.4c.6.2 1.1.4 1.3.4.2 0 .4 0 .9-.2 8-3.7 16-7.1 24-10.6 1.6-.9 3.1-1.3 4.6-1.3zM65.5 56.4c2.8 0 5 2.2 5 5 0 2.6-2.2 5-5 5s-5-2.2-5-5 2.2-5 5-5zM17.1 47.8h40.6V50H17.1z"></path><g><path class="st0" d="M9.5 41.9h56v2.2h-56z"></path></g>
		</symbol>
	
		<symbol id=":icon_membership" viewBox="0 0 101.6 80">
			<style>.st0{fill:#124a85}</style><path class="st0" d="M57.1 79.8c-1.1 0-2.2-.4-3-1.3l-1.1-1-32.4-30.8-7.6-7.3c-.6-.6-.6-1.5 0-1.9l23.2-23.8c.2-.4.6-.6.9-.6l10.6-.6c.4 0 .9.2 1.1.4l37 36.6c.9.9 1.3 1.7 1.3 3 0 1.1-.4 2.2-1.3 3l-2.4 2.4c-.9.9-1.7 1.3-3 1.3s-2.2-.4-3-1.3l-9.3-9.3 1.1-1.1 8.2 8.2c1.5 1.5 4.1 1.5 5.6 0l1.5-1.5c.4-.4.6-1.1.6-1.7s-.2-1.3-.6-1.7L83 49.3 47.8 14.5c-.2-.2-.6-.4-1.1-.4l-9.3.6c-.4 0-.6.2-.9.4L15.4 37.2c-.6.6-.4 1.5 0 1.9l6.3 6.3 32.7 30.9c1.5 1.5 4.1 1.5 5.6 0l1.5-1.5c.9-.9.9-2.6 0-3.5l1.1-1.1c.9.9 1.3 1.7 1.3 3s-.4 2.2-1.3 3l-2.4 2.4c-.9.8-2 1.2-3.1 1.2z"></path><path class="st0" d="M27.7 34l5.8-12.1 10.6-5.2 19-4.3c.6-.2 1.3 0 1.9.4L89 37c.9.9.9 1.9 0 2.8l-6.7 6.5-19-19-19.7.4c.1.2-7.9 12.3-15.9 6.3zM74.9 67.7c-1.1 0-2.2-.4-3-1.3L61 55.6l1.1-1.1 10.8 10.8c1.1 1.1 2.6 1.1 3.5 0l2.4-2.4c1.1-1.1 1.1-2.6 0-3.5l-.9-1.4 1.1-1.1 1.3 1.3c1.7 1.7 1.7 4.3 0 5.8l-2.4 2.4c-.9.9-2 1.3-3 1.3zM20.1 59.7l-1.5-1.5c-1.3-1.3-1.3-3.5 0-4.8l9.3-9.3c1.3-1.3 3.5-1.3 4.8 0l1.5 1.5c1.3 1.3 1.3 3.5 0 4.8l-9.3 9.3c-1.3 1.3-3.5 1.3-4.8 0zM26.4 68.4l-1.5-1.5c-1.3-1.3-1.3-3.5 0-4.8l10-10c1.3-1.3 3.5-1.3 4.8 0l1.5 1.5c1.3 1.3 1.3 3.5 0 4.8l-10 10c-1.3 1.3-3.5 1.3-4.8 0zM34.8 74.6l-1.5-1.5c-1.3-1.3-1.3-3.5 0-4.8l10.6-10.6c1.3-1.3 3.5-1.3 4.8 0l1.5 1.5c1.3 1.3 1.3 3.5 0 4.8L39.6 74.6c-1.5 1.3-3.5 1.3-4.8 0zM90.7 35.5L67.5 12.1c-1.3-1.3-1.3-3.5 0-4.8l5.2-5.2c1.3-1.3 3.5-1.3 4.8 0l23.2 23.2c1.3 1.3 1.3 3.5 0 4.8l-5.2 5.2c-1.4 1.5-3.5 1.5-4.8.2zM9.5 36.8c-1.1 0-2.2-.4-3-1.3l-5.2-5.2C.4 29.6 0 28.6 0 27.5s.4-2.2 1.3-3L24.4 1.3c.9-.9 1.9-1.3 3-1.3s2.2.4 3 1.3l5.2 5.2c1.7 1.7 1.7 4.3 0 5.8L12.3 35.5c-.8.8-1.9 1.3-2.8 1.3zm18-35.1c-.6 0-1.3.2-1.7.6L2.4 25.5c-.4.4-.6 1.1-.6 1.7s.2 1.3.6 1.7l5.2 5.2c.9.9 2.6.9 3.5 0L34.4 11c1.1-1.1 1.1-2.6 0-3.5l-5.2-5.2c-.4-.4-1.1-.6-1.7-.6z"></path><path class="st0" d="M65.3 73.8c-1.1 0-2.2-.4-3-1.3l-7.1-7.1 1.1-1.1 7.1 7.1c1.1 1.1 2.6 1.1 3.5 0l3.2-3.2c1.1-1.1 1.1-2.6 0-3.5l-.9-.9 1.1-1.1.9.9c1.7 1.7 1.7 4.3 0 5.8L68 72.6c-.5 1-1.6 1.2-2.7 1.2zM45.2 79.2l-1.5-1.5c-1.3-1.3-1.3-3.5 0-4.8l5.6-5.6c1.3-1.3 3.5-1.3 4.8 0l1.5 1.5c1.3 1.3 1.3 3.5 0 4.8L50 79.2c-1.3 1.1-3.5 1.1-4.8 0z"></path>
		</symbol>
	
</svg>
